<svg xmlns="http://www.w3.org/2000/svg" width="490" height="160" viewBox="0 0 490 160">
  <line x1="120" y1="20" x2="60" y2="60" stroke="#000"></line>
  <line x1="120" y1="20" x2="180" y2="60" stroke="#000"></line>
  <line x1="60" y1="60" x2="30" y2="100" stroke="#000"></line>
  <line x1="60" y1="60" x2="90" y2="100" stroke="#000"></line>
  <line x1="180" y1="60" x2="150" y2="100" stroke="#000"></line>
  <line x1="180" y1="60" x2="210" y2="100" stroke="#000"></line>

  <circle cx="120" cy="20" r="20" fill="#fff" stroke="#000"></circle>
  <circle cx="60" cy="60" r="20" fill="#fff" stroke="#000"></circle>
  <circle cx="180" cy="60" r="20" fill="#fff" stroke="#000"></circle>
  <circle cx="30" cy="100" r="20" fill="#fff" stroke="#000"></circle>
  <circle cx="90" cy="100" r="20" fill="#fff" stroke="#000"></circle>
  <circle cx="150" cy="100" r="20" fill="#fff" stroke="#000"></circle>
  <circle cx="210" cy="100" r="20" fill="#fff" stroke="#000"></circle>

  <text x="115" y="25" fill="#000" font-size="20px">3</text>
  <text x="55" y="65" fill="#000" font-size="20px">1</text>
  <text x="175" y="65" fill="#000" font-size="20px">8</text>
  <text x="25" y="105" fill="#000" font-size="20px">1</text>
  <text x="85" y="105" fill="#000" font-size="20px">2</text>
  <text x="145" y="105" fill="#000" font-size="20px">5</text>
  <text x="200" y="105" fill="#000" font-size="20px">13</text>

  <line x1="400" y1="20" x2="310" y2="140" stroke="#000"></line>
  <line x1="400" y1="20" x2="430" y2="60" stroke="#000"></line>
  <line x1="370" y1="60" x2="400" y2="100" stroke="#000"></line>
  <line x1="340" y1="100" x2="370" y2="140" stroke="#000"></line>

  <circle cx="400" cy="20" r="20" fill="#fff" stroke="#000"></circle>
  <circle cx="370" cy="60" r="20" fill="#fff" stroke="#000"></circle>
  <circle cx="430" cy="60" r="20" fill="#fff" stroke="#000"></circle>
  <circle cx="340" cy="100" r="20" fill="#fff" stroke="#000"></circle>
  <circle cx="400" cy="100" r="20" fill="#fff" stroke="#000"></circle>
  <circle cx="310" cy="140" r="20" fill="#fff" stroke="#000"></circle>
  <circle cx="370" cy="140" r="20" fill="#fff" stroke="#000"></circle>

  <text x="395" y="25" fill="#000" font-size="20px">8</text>
  <text x="365" y="65" fill="#000" font-size="20px">3</text>
  <text x="420" y="65" fill="#000" font-size="20px">13</text>
  <text x="335" y="105" fill="#000" font-size="20px">1</text>
  <text x="395" y="105" fill="#000" font-size="20px">5</text>
  <text x="305" y="145" fill="#000" font-size="20px">1</text>
  <text x="365" y="145" fill="#000" font-size="20px">2</text>
</svg>
